<?xml version="1.0" encoding="UTF-8"?> <svg xmlns="http://www.w3.org/2000/svg" viewBox="0 0 100 18" fill="none" height="24px" width="122px"><path d="M7.249 3.723 8.95 9.037l5.546-.012-4.494 3.272 1.726 5.306-4.48-3.292-4.48 3.292 1.725-5.306L0 9.025l5.546.012L7.25 3.723ZM16.377 3.86h7.517v3.109h-4.15v2.36h4.001v3.11h-4v5.281h-3.368V3.86ZM27.783 10.752c0 .537.086 1.052.26 1.545.174.494.425.93.754 1.312a3.76 3.76 0 0 0 1.19.917c.466.232.996.347 1.591.347.62 0 1.163-.128 1.628-.384.466-.256.85-.584 1.154-.984.304-.399.533-.836.688-1.31.155-.475.233-.937.233-1.387 0-.45-.078-.914-.233-1.395a4.517 4.517 0 0 0-.688-1.33 3.544 3.544 0 0 0-1.163-.993c-.472-.256-1.023-.384-1.656-.384-.608 0-1.147.119-1.619.356-.471.237-.865.55-1.181.937a4.101 4.101 0 0 0-.717 1.301 4.54 4.54 0 0 0-.241 1.452ZM24.805 8c.187-.45.46-.93.82-1.443.359-.511.815-.99 1.367-1.433a7.213 7.213 0 0 1 1.953-1.095c.75-.287 1.61-.431 2.578-.431 1.054 0 2.028.194 2.92.58a7.233 7.233 0 0 1 2.308 1.565 7.078 7.078 0 0 1 1.507 2.294c.36.874.54 1.792.54 2.754 0 .961-.18 1.879-.54 2.753a7.077 7.077 0 0 1-1.507 2.294 7.23 7.23 0 0 1-2.307 1.564c-.893.387-1.873.581-2.94.581-1.08 0-2.066-.2-2.959-.599a7.26 7.26 0 0 1-2.288-1.583 7.108 7.108 0 0 1-1.47-2.248 6.75 6.75 0 0 1-.521-2.594c0-.462.037-.943.112-1.442.074-.5.216-1.005.427-1.517ZM53.994 9.833c.012.125.019.244.019.356v.375c0 1.161-.205 2.2-.614 3.118a7.282 7.282 0 0 1-1.628 2.342 6.946 6.946 0 0 1-2.345 1.47 7.715 7.715 0 0 1-2.763.506c-1.042 0-2.01-.19-2.902-.571a7.136 7.136 0 0 1-2.317-1.564 7.337 7.337 0 0 1-1.535-2.313 7.163 7.163 0 0 1-.558-2.82c0-1.036.192-1.991.577-2.865a6.848 6.848 0 0 1 1.581-2.257 7.356 7.356 0 0 1 2.344-1.48 7.67 7.67 0 0 1 2.866-.534c.819 0 1.603.131 2.354.393.75.263 1.43.616 2.037 1.059a7.143 7.143 0 0 1 1.563 1.554c.434.594.744 1.227.93 1.901H49.66a3.865 3.865 0 0 0-1.163-1.264c-.503-.356-1.126-.534-1.87-.534-.434 0-.875.082-1.321.244-.447.162-.85.41-1.21.74s-.654.749-.883 1.255c-.23.506-.345 1.102-.345 1.788 0 .725.115 1.349.345 1.874.23.524.527.955.893 1.292.365.337.772.587 1.219.75a3.84 3.84 0 0 0 1.32.243c.881 0 1.604-.203 2.168-.609.564-.406.94-.946 1.126-1.62h-4.112V9.833h8.168ZM58.006 12.905h2.884l-1.414-4.738h-.056l-1.414 4.738Zm5.19-11.163a4.83 4.83 0 0 1-.994.506c-.342.125-.71.187-1.108.187-.16 0-.381-.025-.66-.075a28.52 28.52 0 0 1-.865-.169 40.9 40.9 0 0 0-.847-.168 3.605 3.605 0 0 0-.605-.075c-.273 0-.511.037-.716.112-.205.075-.413.157-.623.244L55.66.656c.236-.138.537-.282.903-.431.365-.15.747-.225 1.144-.225a2.978 2.978 0 0 1 .623.056c.13.025.298.06.503.103l.828.178c.21.063.41.1.595.112.186.013.341.02.465.02.285 0 .524-.029.717-.085.192-.056.406-.134.642-.234l1.116 1.592Zm-6.158 13.973-.725 2.004h-3.778l5.527-13.86h2.772l5.47 13.86H62.49l-.67-2.004h-4.782ZM68.416 10.752c0 .537.087 1.052.261 1.545.174.494.425.93.754 1.312a3.76 3.76 0 0 0 1.19.917c.466.232.996.347 1.591.347.62 0 1.163-.128 1.628-.384.465-.256.85-.584 1.154-.984.304-.399.533-.836.688-1.31.155-.475.233-.937.233-1.387 0-.45-.078-.914-.233-1.395a4.526 4.526 0 0 0-.688-1.33 3.546 3.546 0 0 0-1.163-.993c-.471-.256-1.023-.384-1.656-.384-.608 0-1.147.119-1.619.356A3.59 3.59 0 0 0 69.375 8a4.1 4.1 0 0 0-.717 1.301 4.537 4.537 0 0 0-.242 1.452ZM65.44 8c.186-.45.458-.93.818-1.443.36-.511.816-.99 1.368-1.433a7.217 7.217 0 0 1 1.953-1.095c.75-.287 1.61-.431 2.577-.431 1.055 0 2.028.194 2.922.58a7.234 7.234 0 0 1 2.307 1.565 7.082 7.082 0 0 1 1.507 2.294c.36.874.54 1.792.54 2.754 0 .961-.18 1.879-.54 2.753a7.08 7.08 0 0 1-1.507 2.294 7.23 7.23 0 0 1-2.307 1.564c-.894.387-1.874.581-2.94.581-1.08 0-2.066-.2-2.959-.599a7.257 7.257 0 0 1-2.288-1.583 7.106 7.106 0 0 1-1.47-2.248 6.746 6.746 0 0 1-.521-2.594c0-.462.037-.943.111-1.442.075-.5.218-1.005.429-1.517ZM81.241 7.079h1.873l3.287 5.38.023-.024-.092-5.356h2.08v8.561h-1.885l-3.24-5.206-.023.011.057 5.195h-2.08V7.079ZM89.16 7.079h4.723v1.92H91.24v1.33h2.563v1.921H91.24v1.47h2.643v1.92H89.16V7.079ZM96.162 8.999h-1.678v-1.92H100v1.92h-1.666v6.64h-2.172V9Z" fill="#1A1A19"></path></svg> 